<?xml version="1.0" encoding="UTF-8" standalone="no"?>
<!-- Created with Inkscape (http://www.inkscape.org/) -->

<svg
   width="512"
   height="512"
   viewBox="0 0 135.46667 135.46667"
   version="1.1"
   id="svg1"
   xmlns:xlink="http://www.w3.org/1999/xlink"
   xmlns="http://www.w3.org/2000/svg"
   xmlns:svg="http://www.w3.org/2000/svg">
  <defs
     id="defs1">
    <linearGradient
       id="linearGradient45">
      <stop
         style="stop-color:#ef6500;stop-opacity:1;"
         offset="0"
         id="stop44" />
      <stop
         style="stop-color:#a03508;stop-opacity:1;"
         offset="1"
         id="stop45" />
    </linearGradient>
    <linearGradient
       id="linearGradient40">
      <stop
         style="stop-color:#ef6500;stop-opacity:1;"
         offset="0"
         id="stop39" />
      <stop
         style="stop-color:#a03508;stop-opacity:1;"
         offset="1"
         id="stop40" />
    </linearGradient>
    <linearGradient
       xlink:href="#linearGradient45"
       id="linearGradient35"
       x1="25.383888"
       y1="49.628315"
       x2="42.812237"
       y2="90.593369"
       gradientUnits="userSpaceOnUse" />
    <linearGradient
       xlink:href="#linearGradient40"
       id="linearGradient41"
       gradientUnits="userSpaceOnUse"
       x1="19.991301"
       y1="41.209114"
       x2="66.103661"
       y2="159.12901"
       gradientTransform="matrix(0.87479733,0.34208789,-0.34208789,0.87479733,2.7362347,-33.924951)" />
    <linearGradient
       xlink:href="#linearGradient45"
       id="linearGradient46"
       gradientUnits="userSpaceOnUse"
       x1="25.383888"
       y1="49.628315"
       x2="28.230003"
       y2="87.139679"
       gradientTransform="rotate(-19.265588,75.178365,45.838634)" />
    <filter
       style="color-interpolation-filters:sRGB"
       id="filter11"
       x="-0.28712537"
       y="-1.196053"
       width="1.5742507"
       height="3.3921061">
      <feFlood
         result="flood"
         in="SourceGraphic"
         flood-opacity="1.000000"
         flood-color="rgb(0,0,0)"
         id="feFlood9" />
      <feGaussianBlur
         result="blur"
         in="SourceGraphic"
         stdDeviation="12.000000"
         id="feGaussianBlur9" />
      <feOffset
         result="offset"
         in="blur"
         dx="0.000000"
         dy="0.000000"
         id="feOffset9" />
      <feComposite
         result="comp1"
         operator="in"
         in="flood"
         in2="offset"
         id="feComposite10" />
      <feComposite
         result="comp2"
         operator="over"
         in="SourceGraphic"
         in2="comp1"
         id="feComposite11" />
    </filter>
  </defs>
  <g
     id="layer4"
     style="fill:url(#linearGradient35)">
    <path
       style="fill:url(#linearGradient41);fill-opacity:1;stroke-width:0.994095;stroke-dasharray:none"
       d="m 31.026469,17.853111 c 10.829495,-10.8294952 52.794077,0.812822 60.925896,5.490957 8.131815,4.678135 28.618375,19.603126 29.270385,49.112096 0.65202,29.508966 -20.8631,54.290436 -50.346615,54.549626 -29.483517,0.2592 -30.002273,-31.052416 -23.264626,-31.232 6.737647,-0.179583 5.878324,16.6465 23.413823,16.56925 17.535499,-0.0772 21.100555,-41.587893 4.465931,-57.436209 C 58.856639,39.058515 70.340349,60.485691 36.038162,60.539932 1.7359751,60.594174 20.196974,28.682606 31.026469,17.853111 Z"
       id="path36-3" />
    <path
       style="fill:url(#linearGradient46);fill-opacity:1"
       d="m 47.968235,82.888942 c 28.12472,10.620561 14.507954,22.005948 0.487319,14.459934 -13.495475,8.777934 -27.359093,-0.01036 -0.487319,-14.459934 z"
       id="path23" />
    <path
       style="fill:none;stroke:#000000;stroke-width:2.64583;stroke-linecap:round;stroke-linejoin:round;stroke-dasharray:none;stroke-opacity:1"
       d="m 15.60069,42.639074 1.257039,5.482499 5.979258,-5.515663 2.205914,5.514813 5.702765,-5.398292 2.545749,5.866799 c 0,0 18.353822,-0.0342 25.088989,-2.114752 6.735168,-2.080555 1.703987,-3.403075 1.703987,-3.403075"
       id="path1" />
  </g>
  <path
     style="fill:#fbfbfb;fill-opacity:1;stroke:#000000;stroke-width:2.64583;stroke-linecap:round;stroke-linejoin:round;stroke-dasharray:none;stroke-opacity:1"
     d="m 38.631108,24.672214 c 6.815817,-4.583908 19.464632,1.942798 19.445438,10.111629 -5.181747,0.09013 -5.916228,-5.116274 -12.704353,-0.259275 -9.68276,6.928151 -18.925766,-1.657672 -6.741085,-9.852354 z"
     id="path36" />
  <path
     d="m 24.642225,74.362735 q -1.2446,0 -2.159,-0.5334 -0.9144,-0.5588 -1.4986,-1.4732 -0.5842,-0.9398 -0.8636,-2.0828 -0.2794,-1.1684 -0.254,-2.413 0.0254,-1.2192 0.3048,-2.3622 0.3048,-1.143 0.889,-2.032 0.5842,-0.889 1.4732,-1.397 0.889,-0.5334 2.1082,-0.5334 1.1176,0 2.159,0.5334 1.0668,0.5334 1.905,1.4478 0.8382,0.889 1.3208,2.032 0.4826,1.143 0.4826,2.3622 0,1.27 -0.4826,2.4384 -0.4826,1.1684 -1.3208,2.0828 -0.8128,0.889 -1.8796,1.4224 -1.0414,0.508 -2.1844,0.508 z m -0.6096,-4.572 q 0.508,0 0.9144,-0.254 0.4318,-0.254 0.6858,-0.6604 0.254,-0.4318 0.254,-0.9144 0,-0.508 -0.254,-0.9144 -0.2286,-0.4318 -0.6604,-0.6604 -0.4064,-0.254 -0.9144,-0.254 -0.508,0 -0.9398,0.254 -0.4064,0.254 -0.6604,0.6604 -0.2286,0.4064 -0.2286,0.9144 0,0.4826 0.254,0.9144 0.254,0.4064 0.6604,0.6604 0.4064,0.254 0.889,0.254 z m -4.1656,4.5974 q -1.143,0 -1.6256,-0.3302 -0.4826,-0.3556 -0.5842,-0.889 -0.0762,-0.5334 -0.0762,-1.0922 v -14.097 q 0,-0.5842 0.1016,-1.0922 0.1016,-0.5334 0.5842,-0.8636 0.4826,-0.3302 1.6256,-0.3302 1.143,0 1.6002,0.3556 0.4572,0.3302 0.5334,0.8636 0.0762,0.5334 0.0508,1.0922 v 15.113 q -0.1778,0.6604 -0.6858,0.9652 -0.4826,0.3048 -1.524,0.3048 z m 17.272022,-0.0254 q -1.143,0 -2.2098,-0.508 -1.0414,-0.5334 -1.8796,-1.4224 -0.8128,-0.9144 -1.2954,-2.0828 -0.4826,-1.1684 -0.4826,-2.4384 0,-1.2192 0.4826,-2.3622 0.4826,-1.143 1.3208,-2.032 0.8382,-0.9144 1.8796,-1.4478 1.0668,-0.5334 2.1844,-0.5334 1.2192,0 2.1082,0.5334 0.889,0.508 1.4732,1.397 0.5842,0.889 0.8636,2.032 0.3048,1.143 0.3302,2.3622 0.0254,1.2446 -0.254,2.413 -0.2794,1.143 -0.8636,2.0828 -0.5842,0.9144 -1.4986,1.4732 -0.889,0.5334 -2.159,0.5334 z m 0.6096,-4.572 q 0.4826,0 0.889,-0.254 0.4064,-0.254 0.6604,-0.6604 0.254,-0.4318 0.254,-0.9144 0,-0.508 -0.254,-0.9144 -0.2286,-0.4064 -0.635,-0.6604 -0.4064,-0.254 -0.9398,-0.254 -0.508,0 -0.9398,0.254 -0.4064,0.2286 -0.6604,0.6604 -0.2286,0.4064 -0.2286,0.9144 0,0.4826 0.254,0.9144 0.254,0.4064 0.6858,0.6604 0.4318,0.254 0.9144,0.254 z m 4.1656,4.5974 q -1.016,0 -1.524,-0.3048 -0.508,-0.3048 -0.6858,-0.9652 v -15.113 q 0,-0.5588 0.0508,-1.0922 0.0762,-0.5334 0.5334,-0.8636 0.4572,-0.3556 1.6002,-0.3556 1.1684,0 1.6256,0.3302 0.4826,0.3302 0.5842,0.8636 0.1016,0.508 0.1016,1.0922 v 14.097 q 0,0.5588 -0.1016,1.0922 -0.1016,0.5334 -0.5842,0.889 -0.4572,0.3302 -1.6002,0.3302 z m 9.779022,5.3848 q -0.889,0 -1.8288,-0.254 -0.9144,-0.2286 -1.7018,-0.635 -0.7874,-0.4064 -1.27,-0.889 -0.4826,-0.4572 -0.4826,-0.9144 0,-0.508 0.1778,-0.9398 0.2032,-0.4318 0.5842,-0.8382 0.4064,-0.4318 0.7112,-0.6858 0.3048,-0.254 0.7366,-0.254 0.381,0 0.6604,0.1778 0.3048,0.1778 0.6096,0.381 0.3048,0.2286 0.7366,0.4064 0.4572,0.1778 1.143,0.1778 0.381,0 0.7112,-0.1778 0.3302,-0.1524 0.5588,-0.4572 0.254,-0.2794 0.4064,-0.6858 0.1524,-0.381 0.1524,-0.8382 v -10.4648 q 0.1016,-0.762 0.635,-1.0922 0.5334,-0.3302 1.6256,-0.3302 1.1176,0 1.5748,0.3302 0.4572,0.3302 0.5334,0.8636 0.1016,0.508 0.1016,1.0668 v 9.779 q 0,1.4986 -0.5842,2.667 -0.5588,1.1684 -1.4986,1.9558 -0.9398,0.8128 -2.0574,1.2192 -1.1176,0.4318 -2.2352,0.4318 z m -0.635,-5.7404 q -1.1176,0 -2.159,-0.508 -1.016,-0.508 -1.8288,-1.397 -0.8128,-0.889 -1.2954,-2.0066 -0.4572,-1.143 -0.4572,-2.3876 0,-1.1938 0.4572,-2.3114 0.4826,-1.1176 1.2954,-1.9812 0.8382,-0.889 1.8542,-1.397 1.0414,-0.5334 2.1336,-0.5334 1.1176,0 1.8288,0.4572 0.7366,0.4572 1.143,1.2954 0.4318,0.8382 0.6096,2.0066 0.1778,1.143 0.1778,2.54 0,1.9304 -0.3302,3.3274 -0.3048,1.397 -1.1176,2.159 -0.8128,0.7366 -2.3114,0.7366 z m 0.6096,-4.4704 q 0.4826,0 0.8636,-0.254 0.4064,-0.254 0.635,-0.6604 0.254,-0.4064 0.254,-0.8636 0,-0.508 -0.254,-0.9144 -0.2286,-0.4064 -0.635,-0.635 -0.4064,-0.254 -0.9144,-0.254 -0.4826,0 -0.889,0.254 -0.4064,0.254 -0.6604,0.6604 -0.2286,0.4064 -0.2286,0.889 0,0.4572 0.254,0.8636 0.254,0.4064 0.6604,0.6604 0.4318,0.254 0.9144,0.254 z m 18.237187,4.8006 q -1.143,0 -1.7018,-0.381 -0.5334,-0.381 -0.508,-0.8636 h 0.3556 q -0.127,0.1778 -0.508,0.4826 -0.3556,0.2794 -0.9652,0.5334 -0.6096,0.2286 -1.4986,0.2286 -1.143,0 -2.2098,-0.508 -1.0414,-0.5334 -1.8796,-1.4478 -0.8128,-0.9144 -1.2954,-2.0574 -0.4826,-1.1684 -0.4826,-2.4384 0,-1.2446 0.4826,-2.3876 0.4826,-1.143 1.3208,-2.032 0.8382,-0.9144 1.8796,-1.4224 1.0414,-0.5334 2.1844,-0.5334 0.8636,0 1.4478,0.254 0.6096,0.254 0.9652,0.5588 0.381,0.3048 0.508,0.508 h -0.2794 q -0.0254,-0.635 0.508,-0.9906 0.5588,-0.3556 1.7018,-0.3556 1.143,0 1.6002,0.3556 0.4826,0.3302 0.5842,0.8636 0.1016,0.5334 0.1016,1.0922 v 8.255 q 0,0.5588 -0.1016,1.0922 -0.1016,0.5334 -0.5842,0.8636 -0.4572,0.3302 -1.6256,0.3302 z m -4.191,-4.5974 q 0.4826,0 0.8636,-0.254 0.4064,-0.254 0.635,-0.6604 0.254,-0.4318 0.254,-0.9144 0,-0.508 -0.254,-0.9144 -0.2286,-0.4064 -0.635,-0.6604 -0.4064,-0.254 -0.9144,-0.254 -0.508,0 -0.9398,0.254 -0.4064,0.254 -0.6604,0.6858 -0.254,0.4064 -0.254,0.9144 0,0.4826 0.254,0.889 0.2794,0.4064 0.7112,0.6604 0.4318,0.254 0.9398,0.254 z m 10.261581,4.6482 q -1.143,0 -1.6256,-0.3302 -0.4826,-0.3556 -0.5842,-0.889 -0.0762,-0.5334 -0.0762,-1.0922 v -8.3058 q 0,-0.5842 0.1016,-1.0922 0.1016,-0.5334 0.5842,-0.8636 0.4826,-0.3302 1.651,-0.3302 1.143,0 1.651,0.4572 0.5334,0.4318 0.5334,1.4224 l -0.4318,-0.127 q 0,0 0.1778,-0.254 0.2032,-0.2794 0.5588,-0.635 0.381,-0.3556 0.9144,-0.6096 0.5334,-0.2794 1.2192,-0.2794 0.7874,0 1.4478,0.2032 0.6604,0.2032 1.1938,0.635 0.5588,0.4064 0.9652,1.016 0.2794,-0.3302 0.762,-0.762 0.4826,-0.4318 1.143,-0.762 0.6858,-0.3302 1.524,-0.3302 1.4986,0 2.54,0.762 1.0668,0.762 1.6002,2.2098 0.5588,1.4478 0.5588,3.5052 v 4.1402 q 0,0.5588 -0.1016,1.0922 -0.1016,0.5334 -0.5842,0.889 -0.4826,0.3302 -1.651,0.3302 -1.143,0 -1.6256,-0.3556 -0.4826,-0.3556 -0.5842,-0.889 -0.0762,-0.5334 -0.0762,-1.0922 v -4.1402 q 0,-0.6096 -0.1524,-0.9906 -0.127,-0.4064 -0.4064,-0.6096 -0.254,-0.2032 -0.6604,-0.2032 -0.4318,0 -0.7112,0.1778 -0.254,0.1778 -0.381,0.5842 -0.1016,0.381 -0.1016,1.0668 v 4.1402 q 0,0.5588 -0.1016,1.0922 -0.1016,0.5334 -0.5842,0.889 -0.4826,0.3302 -1.651,0.3302 -1.143,0 -1.6256,-0.3556 -0.4826,-0.3556 -0.5842,-0.889 -0.0762,-0.5334 -0.0762,-1.0922 v -4.1402 q 0,-0.6096 -0.127,-1.016 -0.127,-0.4064 -0.4064,-0.5842 -0.254,-0.2032 -0.6858,-0.2032 -0.508,0 -0.762,0.254 -0.254,0.254 -0.3556,0.6604 -0.0762,0.4064 -0.0762,0.889 v 4.191 q 0,0.5588 -0.1016,1.0922 -0.1016,0.5334 -0.5842,0.8636 -0.4826,0.3302 -1.651,0.3302 z m 24.409413,0.2794 q -1.905001,0 -3.225801,-0.6096 -1.3208,-0.635 -2.1336,-1.6256 -0.8128,-1.016 -1.1938,-2.1844 -0.381,-1.1684 -0.381,-2.2606 0,-2.0066 0.889,-3.5306 0.889,-1.524 2.4638,-2.3876 1.5748,-0.8636 3.606801,-0.8636 1.5748,0 2.6924,0.508 1.1176,0.508 1.8034,1.2954 0.7112,0.7874 1.0414,1.6764 0.3302,0.889 0.3302,1.651 0,1.4478 -0.7112,2.2098 -0.7112,0.762 -1.8288,0.762 h -5.410201 q 0.1016,0.4064 0.4064,0.7112 0.3302,0.2794 0.8128,0.4572 0.482601,0.1524 1.041401,0.1524 0.5588,0 0.9906,-0.0508 0.4318,-0.0762 0.7366,-0.1778 0.3302,-0.1016 0.5842,-0.2032 0.2794,-0.1016 0.4826,-0.1524 0.2286,-0.0762 0.4318,-0.0762 0.4572,0 0.8382,0.3048 0.381,0.3048 0.6858,0.9144 0.1778,0.3302 0.254,0.635 0.0762,0.2794 0.0762,0.5334 0,0.762 -0.635,1.27 -0.6096,0.508 -1.778,0.762 -1.1684,0.2794 -2.8702,0.2794 z m -2.057401,-7.747 h 2.844801 q 0.3556,0 0.508,-0.1524 0.1778,-0.1524 0.1778,-0.4572 0,-0.3302 -0.2032,-0.5588 -0.1778,-0.2286 -0.508,-0.3302 -0.3302,-0.127 -0.7874,-0.127 -0.609601,0 -1.066801,0.254 -0.4572,0.2286 -0.7112,0.6096 -0.2286,0.3556 -0.254,0.762 z m 13.893791,7.6962 q -0.7112,0 -1.6002,-0.1778 -0.8636,-0.1524 -1.7018,-0.4572 -0.8128,-0.3302 -1.3462,-0.762 -0.5334,-0.4318 -0.5334,-0.9906 0,-0.254 0.1016,-0.5588 0.127,-0.3302 0.3302,-0.7112 0.2032,-0.381 0.508,-0.8128 0.1778,-0.254 0.4064,-0.381 0.254,-0.127 0.5842,-0.127 0.4572,0 0.889,0.2032 0.4318,0.1778 0.8636,0.4318 0.4318,0.2286 0.889,0.4318 0.4826,0.1778 1.016,0.1778 0.4826,0 0.7112,-0.1016 0.254,-0.1016 0.254,-0.3048 0,-0.2032 -0.1778,-0.3302 -0.1524,-0.127 -0.4572,-0.2032 -0.2794,-0.1016 -0.6604,-0.1778 -0.381,-0.0762 -0.8128,-0.1778 -0.4318,-0.1016 -0.889,-0.254 -0.5842,-0.1778 -1.143,-0.4572 -0.5588,-0.3048 -1.016,-0.7874 -0.4318,-0.4826 -0.7112,-1.1684 -0.254,-0.6858 -0.254,-1.6764 0,-1.3208 0.6096,-2.2098 0.6096,-0.889 1.8034,-1.3462 1.1938,-0.4572 2.9464,-0.4572 0.4318,0 0.8636,0.0508 0.4318,0.0508 0.8636,0.1524 0.4572,0.1016 0.889,0.2794 0.4572,0.1524 0.9144,0.3556 0.9398,0.4064 0.9652,1.143 0.0254,0.7112 -0.5334,1.4986 -0.3048,0.4826 -0.635,0.7366 -0.3048,0.2286 -0.635,0.2286 -0.4064,0 -0.889,-0.2286 -0.4826,-0.2286 -1.016,-0.4572 -0.5334,-0.2286 -1.0668,-0.2286 -0.3048,0 -0.5334,0.0762 -0.2032,0.0508 -0.3048,0.1778 -0.1016,0.1016 -0.1016,0.254 0,0.2794 0.1778,0.4572 0.2032,0.1524 0.508,0.254 0.3302,0.1016 0.7366,0.1778 0.4318,0.0762 0.9144,0.1524 0.6604,0.1016 1.3462,0.3302 0.7112,0.2032 1.2954,0.6096 0.5842,0.4064 0.9398,1.1176 0.3556,0.7112 0.3556,1.8542 0,2.159 -1.4478,3.2766 -1.4224,1.1176 -4.2164,1.1176 z"
     id="text2"
     style="font-weight:bold;font-size:25.4px;font-family:Fredoka;-inkscape-font-specification:'Fredoka, Bold';display:none;fill:#f7f7f7;stroke-width:0.264583;filter:url(#filter11)"
     aria-label="bdgames" />
</svg>
